<svg width="64" height="64" viewBox="0 0 64 64" xmlns="http://www.w3.org/2000/svg">
<g transform="translate(4, 0)">
<path d="M0 8.20621C0 7.19375 0.728694 6.31122 1.76742 6.06566L26.8682 0.131757C27.6113 -0.0439192 28.3887 -0.0439189 29.1318 0.131757L54.2326 6.06566C55.2713 6.31122 56 7.19375 56 8.20621V13.8962C56 14.614 55.2867 15.1406 54.5504 14.9665L29.1318 8.95749C28.3887 8.78181 27.6113 8.78181 26.8682 8.95749L1.44962 14.9665C0.713286 15.1406 0 14.614 0 13.8962V8.20621Z" fill="white"/>
</g>
<g transform="translate(4, 11)">
<path fill-rule="evenodd" clip-rule="evenodd" d="M1.76742 6.40822C0.728694 6.66765 0 7.60002 0 8.66966V23.7644C0 32.0551 4.40792 39.7219 11.5763 43.8994L23.2972 50.7299C26.2033 52.4234 29.7967 52.4234 32.7028 50.7299L44.4237 43.8994C51.5921 39.7219 56 32.0551 56 23.7644V8.66966C56 7.60002 55.2713 6.66765 54.2326 6.40822L29.1318 0.139198C28.3887 -0.0463992 27.6113 -0.0463995 26.8682 0.139198L1.76742 6.40822ZM20.3166 10.0069C19.4054 9.09658 17.928 9.09658 17.0168 10.0069C16.1055 10.9172 16.1055 12.3932 17.0168 13.3035L22.3668 18.6483H18.6667C17.378 18.6483 16.3333 19.692 16.3333 20.9794C16.3333 22.2668 17.378 23.3104 18.6667 23.3104H25.6667V26.807H18.6667C17.378 26.807 16.3333 27.8506 16.3333 29.138C16.3333 30.4254 17.378 31.469 18.6667 31.469H25.6667V36.1311C25.6667 37.4185 26.7113 38.4622 28 38.4622C29.2887 38.4622 30.3333 37.4185 30.3333 36.1311V31.469H37.3333C38.622 31.469 39.6667 30.4254 39.6667 29.138C39.6667 27.8506 38.622 26.807 37.3333 26.807H30.3333V23.3104H37.3333C38.622 23.3104 39.6667 22.2668 39.6667 20.9794C39.6667 19.692 38.622 18.6483 37.3333 18.6483H33.6332L38.9832 13.3035C39.8945 12.3932 39.8945 10.9172 38.9832 10.0069C38.072 9.09658 36.5946 9.09658 35.6834 10.0069L28 17.6828L20.3166 10.0069Z" fill="white"/>
</g>
</svg>