<svg width="64" height="56" viewBox="0 0 64 56" fill="none" xmlns="http://www.w3.org/2000/svg">
<path d="M4.98663 4.98712C11.6362 -1.66247 22.4176 -1.66244 29.0672 4.98712L29.7909 5.7108C30.1811 6.1013 30.1812 6.73446 29.7909 7.12495L17.1964 19.7185C15.1135 21.8014 15.1135 25.179 17.1964 27.2619L17.3917 27.4563C19.4746 29.5391 22.8512 29.5392 24.9341 27.4563L26.8444 25.546C27.235 25.1554 27.869 25.1554 28.2595 25.546L45.4745 42.7609L32.709 55.3828C32.3179 55.7696 31.6878 55.7678 31.2988 55.3789L4.98663 29.0677C-1.66293 22.4181 -1.66295 11.6367 4.98663 4.98712ZM34.9347 4.98712C41.5843 -1.66213 52.3648 -1.66212 59.0143 4.98712C65.664 11.6367 65.664 22.4181 59.0143 29.0677L47.6885 40.5362C47.2986 40.9309 46.6617 40.9333 46.2694 40.541L28.2576 22.5282C27.8671 22.138 27.2339 22.138 26.8434 22.5282L23.4243 25.9484C22.1747 27.1979 20.1484 27.1977 18.8986 25.9484L18.7033 25.753C17.4539 24.5033 17.4537 22.477 18.7033 21.2274L34.9347 4.98712Z" fill="white"/>
</svg>
